<svg xmlns="http://www.w3.org/2000/svg" width="44.687" height="30.117" viewBox="0 0 44.687 30.117">
  <g id="jon-iocn2" transform="translate(0 -79.995)">
    <path id="Path_277" data-name="Path 277" d="M18.457,93.595c2.217-1.335,2.914-2.609,2.914-5.828A7.771,7.771,0,0,0,13.6,80C6.788,80.02,0,80,0,80v29.142H17.485a5.829,5.829,0,0,0,5.828-5.828v-1.943C23.314,98.147,23.434,94.809,18.457,93.595ZM5.828,85.823h6.8a2.914,2.914,0,1,1,0,5.828h-6.8Zm8.743,17.485H5.828V97.48h8.743a2.914,2.914,0,1,1,0,5.828Z" fill="#2196f3"/>
    <rect id="Rectangle_12" data-name="Rectangle 12" width="13.6" height="5.828" transform="translate(27.2 79.995)" fill="#2196f3"/>
    <path id="Path_278" data-name="Path 278" d="M271.347,199.806a5.786,5.786,0,0,1-10.134-1.515H277.25a9.76,9.76,0,0,0,.122-1.457,10.7,10.7,0,1,0-10.688,10.2,10.639,10.639,0,0,0,10.221-7.227Zm-4.663-9.287a5.811,5.811,0,0,1,5.471,3.886H261.214A5.811,5.811,0,0,1,266.685,190.52Z" transform="translate(-232.685 -96.925)" fill="#2196f3"/>
  </g>
</svg>
