<svg xmlns="http://www.w3.org/2000/svg" width="39.698" height="39.907" viewBox="0 0 39.698 39.907">
  <g id="jon-iocn3" transform="translate(-1.341)">
    <circle id="Ellipse_10" data-name="Ellipse 10" cx="4.157" cy="4.157" r="4.157" transform="translate(1.341 15.796)" fill="#ff5722"/>
    <circle id="Ellipse_11" data-name="Ellipse 11" cx="4.157" cy="4.157" r="4.157" transform="translate(28.772 31.593)" fill="#ff5722"/>
    <circle id="Ellipse_12" data-name="Ellipse 12" cx="4.157" cy="4.157" r="4.157" transform="translate(28.772 0)" fill="#ff5722"/>
    <path id="Path_279" data-name="Path 279" d="M220.47,50.918a.831.831,0,0,0,.923.391,8.266,8.266,0,0,1,10.023,5.785.831.831,0,0,0,.8.605h6.794a.831.831,0,0,0,.821-.963,16.585,16.585,0,0,0-3.781-8.183.831.831,0,0,0-1.091-.146,5.814,5.814,0,0,1-9.041-4.762.831.831,0,0,0-.743-.815,16.678,16.678,0,0,0-7.69,1.008.831.831,0,0,0-.422,1.192Z" transform="translate(-198.804 -39.408)" fill="#ff5722"/>
    <path id="Path_280" data-name="Path 280" d="M239.133,277.333h-6.794a.831.831,0,0,0-.8.605,8.262,8.262,0,0,1-10.023,5.785.831.831,0,0,0-.923.391l-3.4,5.888a.831.831,0,0,0,.3,1.136.843.843,0,0,0,.118.056,16.421,16.421,0,0,0,7.69,1.008.831.831,0,0,0,.743-.815,5.806,5.806,0,0,1,9.031-4.762.831.831,0,0,0,1.092-.151,16.584,16.584,0,0,0,3.781-8.178.832.832,0,0,0-.821-.963Z" transform="translate(-198.926 -255.717)" fill="#ff5722"/>
    <path id="Path_281" data-name="Path 281" d="M107.585,107.087a8.3,8.3,0,0,1,0-11.578.831.831,0,0,0,.123-1l-3.394-5.875a.832.832,0,0,0-.57-.4.868.868,0,0,0-.675.166,16.641,16.641,0,0,0-5.241,7.507.831.831,0,0,0,.258.913,5.728,5.728,0,0,1,0,8.957.831.831,0,0,0-.258.913,16.642,16.642,0,0,0,5.239,7.5.831.831,0,0,0,.525.186.907.907,0,0,0,.15-.013.831.831,0,0,0,.57-.4l3.394-5.878A.831.831,0,0,0,107.585,107.087Z" transform="translate(-88.925 -81.345)" fill="#ff5722"/>
  </g>
</svg>
