<svg id="jon-iocn4" xmlns="http://www.w3.org/2000/svg" width="39.992" height="39.992" viewBox="0 0 39.992 39.992">
  <path id="Path_282" data-name="Path 282" d="M9.373,112.383a10.558,10.558,0,0,1,1.494-5.427v-6.741H4.126a20.006,20.006,0,0,0,0,24.336h6.741V117.81A10.558,10.558,0,0,1,9.373,112.383Z" transform="translate(0 -92.387)" fill="#fbbd00"/>
  <path id="Path_283" data-name="Path 283" d="M200.687,374.448,196,379.135l4.687,4.687a19.845,19.845,0,0,0,12.168-4.126v-6.734H206.12A10.622,10.622,0,0,1,200.687,374.448Z" transform="translate(-180.691 -343.829)" fill="#0f9d58"/>
  <path id="Path_284" data-name="Path 284" d="M59.564,325.477l-6.741,6.741a20.317,20.317,0,0,0,1.731,1.971,19.865,19.865,0,0,0,14.139,5.857v-9.373A10.627,10.627,0,0,1,59.564,325.477Z" transform="translate(-48.697 -300.054)" fill="#31aa52"/>
  <path id="Path_285" data-name="Path 285" d="M276,201.907a20.169,20.169,0,0,0-.327-3.622l-.176-.961H256V206.7h9.486a10.575,10.575,0,0,1-4.053,4.346l6.734,6.734a20.313,20.313,0,0,0,1.971-1.731A19.865,19.865,0,0,0,276,201.907Z" transform="translate(-236.004 -181.911)" fill="#3c79e6"/>
  <path id="Path_286" data-name="Path 286" d="M208.2,12.484l.828.828,6.628-6.628-.828-.828A19.865,19.865,0,0,0,200.687,0L196,4.687l4.687,4.687A10.554,10.554,0,0,1,208.2,12.484Z" transform="translate(-180.691)" fill="#cf2d48"/>
  <path id="Path_287" data-name="Path 287" d="M68.692,9.373V0A19.865,19.865,0,0,0,54.553,5.857a20.3,20.3,0,0,0-1.731,1.971l6.741,6.741a10.627,10.627,0,0,1,9.129-5.2Z" transform="translate(-48.696 0)" fill="#eb4132"/>
</svg>
