<svg xmlns="http://www.w3.org/2000/svg" width="38.651" height="40.331" viewBox="0 0 38.651 40.331">
  <g id="jon-iocn1" transform="translate(-10.667)">
    <g id="Group_160" data-name="Group 160" transform="translate(10.667 0)">
      <path id="Path_271" data-name="Path 271" d="M25.326,39.524l-1.777-5.412a15.442,15.442,0,0,1-2.393-1.4l-5.525,1.131a1.178,1.178,0,0,1-1.26-.567L10.827,27.14a1.178,1.178,0,0,1,.138-1.374l3.739-4.22a13.373,13.373,0,0,1,0-2.76l-3.739-4.22a1.179,1.179,0,0,1-.138-1.374l3.545-6.139a1.169,1.169,0,0,1,1.26-.567l5.525,1.131a15.418,15.418,0,0,1,2.391-1.4L25.326.808A1.184,1.184,0,0,1,26.448,0h7.089a1.184,1.184,0,0,1,1.122.808l1.779,5.414a15.426,15.426,0,0,1,2.391,1.4l5.525-1.131a1.17,1.17,0,0,1,1.26.567l3.545,6.139a1.178,1.178,0,0,1-.138,1.374l-3.739,4.22a13.373,13.373,0,0,1,0,2.76l3.739,4.22a1.179,1.179,0,0,1,.138,1.374l-3.545,6.139a1.18,1.18,0,0,1-1.26.567l-5.525-1.131a15.4,15.4,0,0,1-2.4,1.4l-1.772,5.41Z" transform="translate(-10.667 0)" fill="#4086f4"/>
    </g>
    <g id="Group_163" data-name="Group 163" transform="translate(29.993 0)">
      <g id="Group_162" data-name="Group 162">
        <g id="Group_161" data-name="Group 161">
          <path id="Path_272" data-name="Path 272" d="M275.166,13.192l-3.545-6.139a1.17,1.17,0,0,0-1.26-.567l-5.525,1.131a15.419,15.419,0,0,0-2.391-1.4L260.666.808A1.184,1.184,0,0,0,259.545,0H256V39.523h4.666l1.772-5.41a15.4,15.4,0,0,0,2.4-1.4l5.525,1.131a1.18,1.18,0,0,0,1.26-.567l3.545-6.139a1.178,1.178,0,0,0-.138-1.374l-3.739-4.22a13.366,13.366,0,0,0,0-2.76l3.739-4.22a1.179,1.179,0,0,0,.139-1.374Z" transform="translate(-256 0)" fill="#4175df"/>
        </g>
      </g>
    </g>
    <g id="Group_165" data-name="Group 165" transform="translate(25.266 27.729)">
      <g id="Group_164" data-name="Group 164">
        <path id="Path_273" data-name="Path 273" d="M204.271,364.616h-7.089A1.181,1.181,0,0,1,196,363.434v-10.24a1.181,1.181,0,0,1,1.652-1.083,8.081,8.081,0,0,0,6.148,0,1.181,1.181,0,0,1,1.652,1.083v10.24A1.181,1.181,0,0,1,204.271,364.616Z" transform="translate(-196 -352.013)" fill="#e3e7ea"/>
      </g>
    </g>
    <path id="Path_274" data-name="Path 274" d="M259.545,364.626a1.181,1.181,0,0,0,1.182-1.182V353.2a1.181,1.181,0,0,0-1.652-1.083,7.792,7.792,0,0,1-3.074.607v11.9Z" transform="translate(-226.007 -324.295)" fill="#babac0"/>
    <g id="Group_167" data-name="Group 167" transform="translate(19.358 10.215)">
      <g id="Group_166" data-name="Group 166">
        <path id="Path_275" data-name="Path 275" d="M127.619,149.459a10.623,10.623,0,0,1,.021-19.688,1.181,1.181,0,0,1,1.632,1.093V139l2.363,1.575L134,139v-8.135a1.181,1.181,0,0,1,1.632-1.093,10.624,10.624,0,0,1-.009,19.7A10.384,10.384,0,0,1,127.619,149.459Z" transform="translate(-121 -129.681)" fill="#fff5f5"/>
      </g>
    </g>
    <path id="Path_276" data-name="Path 276" d="M259.986,149.471a10.624,10.624,0,0,0,.009-19.7,1.181,1.181,0,0,0-1.632,1.093V139L256,140.574v9.689A10.068,10.068,0,0,0,259.986,149.471Z" transform="translate(-226.007 -119.466)" fill="#e3e7ea"/>
  </g>
</svg>
