<svg xmlns="http://www.w3.org/2000/svg" width="40.008" height="40.008" viewBox="0 0 40.008 40.008">
  <g id="services5" transform="translate(0 0)">
    <g id="Group_152" data-name="Group 152" transform="translate(0 15.032)">
      <g id="Group_151" data-name="Group 151">
        <path id="Path_262" data-name="Path 262" d="M39.421,216.177h-3.8V192.963a.587.587,0,0,0-.587-.587H28.773a.587.587,0,0,0-.587.587v23.214H23.723V199.853a.587.587,0,0,0-.587-.587H16.872a.587.587,0,0,0-.587.587v16.324H11.822V202.985a.587.587,0,0,0-.587-.587H4.972a.587.587,0,0,0-.587.587v13.192H.587a.587.587,0,0,0,0,1.174H39.421a.587.587,0,1,0,0-1.174Zm-28.773,0H5.559V203.572h5.089v12.605Zm11.9,0H17.46V200.44h5.089Zm11.9,0H29.36V193.55h5.089v22.627Z" transform="translate(0 -192.376)" fill="#11e276"/>
      </g>
    </g>
    <g id="Group_154" data-name="Group 154" transform="translate(0.626 0)">
      <g id="Group_153" data-name="Group 153">
        <path id="Path_263" data-name="Path 263" d="M45.524.46A1.839,1.839,0,0,0,44.078.014L39.067.64a1.84,1.84,0,0,0,.456,3.651l.409-.051A44.411,44.411,0,0,1,21.3,16.909,42.476,42.476,0,0,1,9.8,19.417,1.84,1.84,0,0,0,9.856,23.1h.056a45.005,45.005,0,0,0,12.541-2.69,49.347,49.347,0,0,0,11.01-5.535.587.587,0,0,0-.656-.974,48.163,48.163,0,0,1-10.747,5.4A43.715,43.715,0,0,1,9.878,21.921H9.856a.665.665,0,0,1-.02-1.331A43.4,43.4,0,0,0,21.7,18.014,45.433,45.433,0,0,0,41.793,3.841a.592.592,0,0,0-.53-.951l-1.884.236a.666.666,0,1,1-.165-1.321l5.011-.626a.672.672,0,0,1,.748.66V6.85a.666.666,0,0,1-1.331,0V5.331A.587.587,0,0,0,42.6,4.96a45.4,45.4,0,0,1-7.422,7.228.587.587,0,1,0,.718.93,46.539,46.539,0,0,0,6.575-6.184,1.84,1.84,0,0,0,3.678-.083V1.84A1.841,1.841,0,0,0,45.524.46Z" transform="translate(-8.017 0)" fill="#11e276"/>
      </g>
    </g>
  </g>
</svg>
