<svg xmlns="http://www.w3.org/2000/svg" width="30.723" height="40.082" viewBox="0 0 30.723 40.082">
  <g id="services6" transform="translate(-18.439 -4.557)">
    <path id="Path_264" data-name="Path 264" d="M48.571,8.023H45.7V5.147a.59.59,0,0,0-.59-.59H26.028a.573.573,0,0,0-.114.011h0a.593.593,0,0,0-.146.052l-.03.016a.591.591,0,0,0-.127.094l-7,7a.576.576,0,0,0-.094.126l-.017.031a.6.6,0,0,0-.051.144v.008a.578.578,0,0,0-.011.109V40.584a.59.59,0,0,0,.59.59h2.876v2.876a.59.59,0,0,0,.59.59H48.572a.59.59,0,0,0,.59-.59V8.613a.59.59,0,0,0-.591-.59ZM25.439,6.571v4.985H20.453Zm-5.82,6.165h6.409a.59.59,0,0,0,.59-.59v-.915H39.737a.59.59,0,1,0,0-1.18H26.619V5.737h17.9V39.994h-24.9ZM47.981,43.459h-24.9V41.174h22.02a.59.59,0,0,0,.59-.59V9.2h2.286Z" fill="#fd8f5f"/>
    <path id="Path_265" data-name="Path 265" d="M34.949,46.2h15.34a.59.59,0,1,0,0-1.18H34.949a.59.59,0,0,0,0,1.18Z" transform="translate(-10.553 -26.824)" fill="#fd8f5f"/>
    <path id="Path_266" data-name="Path 266" d="M34.949,58.29h15.34a.59.59,0,1,0,0-1.18H34.949a.59.59,0,0,0,0,1.18Z" transform="translate(-10.553 -34.835)" fill="#fd8f5f"/>
    <path id="Path_267" data-name="Path 267" d="M34.949,70.38h15.34a.59.59,0,1,0,0-1.18H34.949a.59.59,0,0,0,0,1.18Z" transform="translate(-10.553 -42.849)" fill="#fd8f5f"/>
    <path id="Path_268" data-name="Path 268" d="M34.949,82.461h15.34a.59.59,0,1,0,0-1.18H34.949a.59.59,0,0,0,0,1.18Z" transform="translate(-10.553 -50.857)" fill="#fd8f5f"/>
    <path id="Path_269" data-name="Path 269" d="M34.949,94.547h15.34a.59.59,0,1,0,0-1.18H34.949a.59.59,0,0,0,0,1.18Z" transform="translate(-10.553 -58.868)" fill="#fd8f5f"/>
    <path id="Path_270" data-name="Path 270" d="M34.949,34.118h15.34a.59.59,0,1,0,0-1.18H34.949a.59.59,0,0,0,0,1.18Z" transform="translate(-10.553 -18.812)" fill="#fd8f5f"/>
  </g>
</svg>
