<svg xmlns="http://www.w3.org/2000/svg" width="40" height="39.998" viewBox="0 0 40 39.998">
  <g id="services4" transform="translate(0 -0.011)">
    <path id="Path_288" data-name="Path 288" d="M20,.011a20,20,0,1,0,0,40c.192,0,.38-.013.568-.025l.3-.018a.833.833,0,1,0,0-1.667A16.654,16.654,0,1,1,38.29,20.881a.833.833,0,0,0,.833.795h0a.833.833,0,0,0,.833-.8l.018-.29c.013-.192.025-.383.025-.58A20.021,20.021,0,0,0,20,.011Z" fill="#ffc107"/>
    <path id="Path_289" data-name="Path 289" d="M144.126,116.492a.812.812,0,0,0-.82.482,5,5,0,1,1-5.528-6.983.833.833,0,0,0,.247-1.542,14.622,14.622,0,1,0,6.833,8.645A.833.833,0,0,0,144.126,116.492Z" transform="translate(-107.113 -98.212)" fill="#ffc107"/>
  </g>
</svg>
